<?xml version="1.0" encoding="UTF-8"?>
<svg width="53px" height="53px" viewBox="0 0 53 53" version="1.1" xmlns="http://www.w3.org/2000/svg" xmlns:xlink="http://www.w3.org/1999/xlink">
    <defs></defs>
    <g id="logo-nl-be-website" stroke="none" stroke-width="1" fill="none" fill-rule="evenodd">
        <g id="logo-nl" transform="translate(-2.000000, -1.000000)">
            <g id="Group-Copy">
                <g id="Group-3" transform="translate(0.000000, 0.107286)"></g>
                <polygon id="Fill-4" fill="#FFFFFF" points="35.815767 6.30865683 25.4542945 17.9944607 26.7864923 19.2928833 42.4773495 21.601126 42.6251077 20.1586912 36.8518549 6.45266896"></polygon>
                <path d="M40.5479473,27.7105949 C38.974233,27.705968 37.6040571,28.4699842 36.9038374,29.5972117 C36.9097714,29.508144 36.9127385,29.4184979 36.9127385,29.3288518 C36.9127385,26.4700085 34.0691341,24.1536688 30.5621011,24.1536688 C28.752211,24.1536688 27.1203429,24.7713594 25.9637934,25.7609367 C25.6053758,22.9888477 23.0062549,20.8384979 19.8528923,20.8408113 C16.7778593,20.8425464 14.2315516,22.8905262 13.7787824,25.5625585 C10.9915516,25.5816445 8.73541978,27.6533371 8.72711209,30.214324 C8.7193978,32.7411875 10.9031341,34.8042047 13.6375516,34.8932724 L13.6375516,34.8984777 L40.1960571,34.8973209 L40.1960571,34.8915373 C40.305244,34.899056 40.4138374,34.9059964 40.5253978,34.9065747 C42.8052659,34.9135151 44.6584747,33.3079822 44.6644088,31.3207304 C44.6703429,29.334057 42.8278154,27.7175353 40.5479473,27.7105949" id="Fill-6" fill="#AAAAAA"></path>
                <path d="M26.8526571,37.5647842 C26.5862176,38.0754779 23.2471187,41.9146447 22.4727231,43.2784222 C21.9066132,44.2795668 21.5422615,45.6861432 21.9172945,46.7144708 C22.2614703,47.6577792 22.8032505,48.2795183 23.721844,48.5478783 L23.7811846,48.5646508 C24.7110527,48.7936821 25.503844,48.5322625 26.2966352,47.8949076 C27.1600418,47.2008732 27.5884813,45.8116477 27.6312066,44.6688044 C27.6858,43.1112756 26.8449429,38.1570269 26.8870747,37.574038 C26.8870747,37.574038 26.8930088,37.5445416 26.8793604,37.540493 C26.8651187,37.5364445 26.8526571,37.5647842 26.8526571,37.5647842" id="Fill-8" fill="#0000FF"></path>
                <path d="M35.1337055,35.7331118 C34.930167,36.1159875 32.3613099,38.9817711 31.7690901,40.0031583 C31.3364967,40.7527155 31.0635297,41.8088044 31.3632,42.586123 C31.6385407,43.2986649 32.0652,43.7706083 32.7826286,43.9799753 L32.8289143,43.9926993 C33.5546505,44.1725699 34.1694198,43.9811321 34.7818154,43.5074536 C35.448211,42.9915547 35.7716176,41.9481897 35.7953538,41.0887438 C35.826211,39.9158257 35.1325187,36.1796073 35.1604088,35.7406305 C35.1604088,35.7406305 35.1657495,35.7186528 35.1538813,35.715761 C35.1432,35.7122908 35.1337055,35.7331118 35.1337055,35.7331118" id="Fill-10" fill="#0000FF"></path>
                <path d="M17.9196923,35.7500578 C17.7161538,36.1323551 15.1472967,38.9981387 14.5550769,40.019526 C14.1230769,40.7696615 13.8501099,41.8257505 14.1491868,42.603069 C14.4251209,43.3156109 14.8517802,43.7875543 15.5692088,43.9969213 L15.6154945,44.0090669 C16.3406374,44.1889375 16.956,43.9980781 17.5678022,43.5243996 C18.2347912,43.0079223 18.5576044,41.9651357 18.5819341,41.1051114 C18.6121978,39.9321933 17.9190989,36.1959749 17.946989,35.7575765 C17.946989,35.7575765 17.9517363,35.7350204 17.9404615,35.7321286 C17.9297802,35.7292368 17.9196923,35.7500578 17.9196923,35.7500578" id="Fill-12" fill="#0000FF"></path>
                <path d="M27.7746923,18.0075316 L41.5553736,20.2868562 L36.6846923,7.97410799 L27.7746923,18.0075316 Z M41.8028242,23.2602152 L26.4982747,20.7281464 C25.4871099,20.5609998 24.7406044,19.9976752 24.4492418,19.1821848 C24.1584725,18.3666944 24.381,17.4609796 25.0598571,16.6969634 L34.8659011,5.65429808 C35.5305165,4.90589767 36.4093516,4.55888049 37.2763187,4.70231426 C38.1432857,4.84574803 38.8482527,5.4547632 39.212011,6.37320202 L44.5728462,19.92538 C44.9437253,20.8623264 44.8351319,21.7871272 44.274956,22.4614973 C43.7141868,23.1364457 42.813989,23.4273618 41.8028242,23.2602152 Z" id="Fill-14" fill="#DA1F26"></path>
                <path d="M36.0574615,17.8278924 C35.9779451,18.311403 35.5115275,18.6410694 35.0148462,18.5635689 C34.5181648,18.4866467 34.1799231,18.0314758 34.2594396,17.5479652 C34.338956,17.0638762 34.805967,16.7336315 35.3026484,16.8111321 C35.7987363,16.8880542 36.136978,17.3438034 36.0574615,17.8278924" id="Fill-16" fill="#231F20"></path>
                <path d="M35.9432901,15.9058799 C36.722433,13.5866483 37.0855978,12.597071 37.122389,12.3709314 C37.1692681,12.085799 37.1069604,11.8209092 36.9366527,11.5785755 C36.7663451,11.3356635 36.5319495,11.191073 36.2346527,11.144804 C35.9593121,11.1020053 35.696433,11.1621549 35.4448286,11.3258313 C35.1938176,11.4895078 35.0419055,11.7318415 34.9902791,12.052254 C34.9540813,12.2708748 34.9825648,13.3165533 34.9825648,15.7560841 L35.9432901,15.9058799 Z" id="Fill-18" fill="#231F20"></path>
            </g>

        </g>
    </g>
</svg>